<mxfile host="Electron" modified="2024-07-24T00:02:50.509Z" agent="Mozilla/5.0 (Windows NT 10.0; Win64; x64) AppleWebKit/537.36 (KHTML, like Gecko) draw.io/21.1.2 Chrome/106.0.5249.199 Electron/21.4.3 Safari/537.36" etag="tDd6FP3DVxQX2UTYs2fV" version="21.1.2" type="device">
  <diagram name="Big Picture" id="WEoV_fgn3QPcmuyxlW8G">
    <mxGraphModel dx="989" dy="577" grid="1" gridSize="10" guides="1" tooltips="1" connect="1" arrows="1" fold="1" page="1" pageScale="1" pageWidth="827" pageHeight="1169" math="0" shadow="0">
      <root>
        <mxCell id="0" />
        <mxCell id="1" parent="0" />
        <mxCell id="FyhJWKibUBtJ3xeml6g5-31" value="" style="rounded=0;whiteSpace=wrap;html=1;fillColor=none;dashed=1;dashPattern=1 1;" vertex="1" parent="1">
          <mxGeometry x="10" y="70" width="430" height="330" as="geometry" />
        </mxCell>
        <mxCell id="258NBqX2YeO7D24skFYQ-1" value="product-service" style="rounded=0;whiteSpace=wrap;html=1;fillColor=none;" parent="1" vertex="1">
          <mxGeometry x="20" y="75" width="120" height="60" as="geometry" />
        </mxCell>
        <mxCell id="FyhJWKibUBtJ3xeml6g5-1" value="inventory-service" style="rounded=0;whiteSpace=wrap;html=1;fillColor=none;" vertex="1" parent="1">
          <mxGeometry x="310" y="75" width="120" height="60" as="geometry" />
        </mxCell>
        <mxCell id="FyhJWKibUBtJ3xeml6g5-2" value="order-service" style="rounded=0;whiteSpace=wrap;html=1;fillColor=none;" vertex="1" parent="1">
          <mxGeometry x="170" y="75" width="120" height="60" as="geometry" />
        </mxCell>
        <mxCell id="FyhJWKibUBtJ3xeml6g5-9" style="edgeStyle=orthogonalEdgeStyle;rounded=0;orthogonalLoop=1;jettySize=auto;html=1;" edge="1" parent="1" source="FyhJWKibUBtJ3xeml6g5-3" target="FyhJWKibUBtJ3xeml6g5-8">
          <mxGeometry relative="1" as="geometry" />
        </mxCell>
        <mxCell id="FyhJWKibUBtJ3xeml6g5-13" style="edgeStyle=orthogonalEdgeStyle;rounded=0;orthogonalLoop=1;jettySize=auto;html=1;entryX=0.5;entryY=1;entryDx=0;entryDy=0;strokeColor=#000000;" edge="1" parent="1" source="FyhJWKibUBtJ3xeml6g5-3" target="FyhJWKibUBtJ3xeml6g5-2">
          <mxGeometry relative="1" as="geometry" />
        </mxCell>
        <mxCell id="FyhJWKibUBtJ3xeml6g5-14" style="edgeStyle=orthogonalEdgeStyle;rounded=0;orthogonalLoop=1;jettySize=auto;html=1;entryX=0.5;entryY=1;entryDx=0;entryDy=0;strokeColor=#000000;" edge="1" parent="1" source="FyhJWKibUBtJ3xeml6g5-3" target="258NBqX2YeO7D24skFYQ-1">
          <mxGeometry relative="1" as="geometry">
            <Array as="points">
              <mxPoint x="230" y="185" />
              <mxPoint x="80" y="185" />
            </Array>
          </mxGeometry>
        </mxCell>
        <mxCell id="FyhJWKibUBtJ3xeml6g5-15" style="edgeStyle=orthogonalEdgeStyle;rounded=0;orthogonalLoop=1;jettySize=auto;html=1;entryX=0.5;entryY=1;entryDx=0;entryDy=0;strokeColor=#000000;exitX=0.5;exitY=0;exitDx=0;exitDy=0;" edge="1" parent="1" source="FyhJWKibUBtJ3xeml6g5-3" target="FyhJWKibUBtJ3xeml6g5-1">
          <mxGeometry relative="1" as="geometry">
            <Array as="points">
              <mxPoint x="230" y="185" />
              <mxPoint x="370" y="185" />
            </Array>
          </mxGeometry>
        </mxCell>
        <mxCell id="FyhJWKibUBtJ3xeml6g5-3" value="API Gateway" style="rounded=0;whiteSpace=wrap;html=1;fillColor=none;" vertex="1" parent="1">
          <mxGeometry x="170" y="215" width="120" height="60" as="geometry" />
        </mxCell>
        <mxCell id="FyhJWKibUBtJ3xeml6g5-8" value="Eureka Server" style="rounded=0;whiteSpace=wrap;html=1;fillColor=none;" vertex="1" parent="1">
          <mxGeometry x="170" y="335" width="120" height="60" as="geometry" />
        </mxCell>
        <mxCell id="FyhJWKibUBtJ3xeml6g5-19" value="REST APIs" style="text;html=1;align=center;verticalAlign=middle;resizable=0;points=[];autosize=1;strokeColor=none;fillColor=none;" vertex="1" parent="1">
          <mxGeometry y="45" width="80" height="30" as="geometry" />
        </mxCell>
        <mxCell id="FyhJWKibUBtJ3xeml6g5-25" style="edgeStyle=orthogonalEdgeStyle;rounded=0;orthogonalLoop=1;jettySize=auto;html=1;entryX=1;entryY=0.5;entryDx=0;entryDy=0;strokeColor=#FF8000;" edge="1" parent="1" source="FyhJWKibUBtJ3xeml6g5-20" target="FyhJWKibUBtJ3xeml6g5-3">
          <mxGeometry relative="1" as="geometry" />
        </mxCell>
        <mxCell id="FyhJWKibUBtJ3xeml6g5-26" style="edgeStyle=orthogonalEdgeStyle;rounded=0;orthogonalLoop=1;jettySize=auto;html=1;entryX=0.75;entryY=1;entryDx=0;entryDy=0;strokeColor=#FF8000;" edge="1" parent="1" source="FyhJWKibUBtJ3xeml6g5-20" target="FyhJWKibUBtJ3xeml6g5-1">
          <mxGeometry relative="1" as="geometry" />
        </mxCell>
        <mxCell id="FyhJWKibUBtJ3xeml6g5-27" style="edgeStyle=orthogonalEdgeStyle;rounded=0;orthogonalLoop=1;jettySize=auto;html=1;entryX=0.75;entryY=1;entryDx=0;entryDy=0;strokeColor=#FF8000;" edge="1" parent="1" source="FyhJWKibUBtJ3xeml6g5-20" target="FyhJWKibUBtJ3xeml6g5-2">
          <mxGeometry relative="1" as="geometry" />
        </mxCell>
        <mxCell id="FyhJWKibUBtJ3xeml6g5-28" style="edgeStyle=orthogonalEdgeStyle;rounded=0;orthogonalLoop=1;jettySize=auto;html=1;entryX=0.75;entryY=1;entryDx=0;entryDy=0;strokeColor=#FF8000;" edge="1" parent="1" source="FyhJWKibUBtJ3xeml6g5-20" target="258NBqX2YeO7D24skFYQ-1">
          <mxGeometry relative="1" as="geometry" />
        </mxCell>
        <mxCell id="FyhJWKibUBtJ3xeml6g5-29" style="edgeStyle=orthogonalEdgeStyle;rounded=0;orthogonalLoop=1;jettySize=auto;html=1;entryX=1;entryY=0.5;entryDx=0;entryDy=0;strokeColor=#FF8000;" edge="1" parent="1" source="FyhJWKibUBtJ3xeml6g5-20" target="FyhJWKibUBtJ3xeml6g5-8">
          <mxGeometry relative="1" as="geometry" />
        </mxCell>
        <mxCell id="FyhJWKibUBtJ3xeml6g5-20" value="" style="shape=image;verticalLabelPosition=bottom;labelBackgroundColor=default;verticalAlign=top;aspect=fixed;imageAspect=0;image=data:image/png,iVBORw0KGgoAAAANSUhEUgAAAJQAAACUCAMAAABC4vDmAAAAbFBMVEXaTjH////aSy3YPxneY0r78O7cWj/sraPdXUTZRSPZSSrZRyfXNADYQR3ZQyDYOg766+nwwLj99/b55OD33Nf11dD00MrnlIbmjn/qo5fzysPjf23ieWfutq3gcV3bVDfpnI/fa1Xkh3jVJwAFT8YxAAAKLElEQVR4nM1c6YKjrBJF0CSIK5q4L3He/x0/0Zi4QmGn+97zb3qiHoqiNgqQcRo8isO2MBtGGbOxjbFt24xR2phFG94jfv7N6ORzVpiUF0Y8htEGmHmEXsqkCv6QVPBoG8en9g6fGTObEQcl+Rli+qQeiUldKZ8ZM5eaaf7bpOKEOhTI6MWrfyC96ymYFqlHiaAyWsoLlaEOLTgpq7r4TJ/RCNtHGmoPJcUrk9iyzzJPLkPs3iqotGCkeNj48m/6xSNRyBH30oLRApGKn55USgjRzDD2TNaKlmfev0TK6nwFJeSEhhH6Kk5I6FYBUC01qdD0VJ+iSf+7hAJI9b+9VD8mFaSOclbsWqhKoRLnC9gpop+RetwA43cehgapXliNwsjLSWWKNTd+oxx+m8KNGPZT6TKUkQoKpTYJsHHcGejHL3ilTN8lpOKbC3m//bSGnz8cDVKIIolxOCaVI5iSeO34ew4xCbOx4FCfVAh1vf7j9UQNswkTMLnqkroSaDjgTDobrmeb3eRPuq0eqSsBD7iZngkuy3GQJFMsSJLokMrAnBAr308tbTorrKdKK919Vruk4HLql1H3fiyerz+MgkD9GrI7g3ukdDghmn4eNGeS8UOQkSAZjFSuCsLJ3Ex6sxmoPqrOSm5UECPh7vjnLam7MjGo2ll2NV9C0e39d5oDJY7J1hFuSAUXlXbSq5F/ArqFtXn7P/sJVgOMNkHDmpT1VJpA1qt2/p7Bhfjfqu4Lcw2avv59pqUg1apHZz97c9lO3L2F9JtRzLgR/jYHekOSrkisSFUAV48v/cisyVLihWO9js8PoagRQb2hu3I4S1KBvD4wIzUpDL4sNCIef0IHZ2upU4nXG934mBSvIYHaGKtYzfBF/FwqxBB/YjT8kZfQuM9eqtWC1BUW1JWDCx6dil0sJT8IkNXjPzJQQCbgLWzonFQEU8xRYYzHIAZ3ZZEt8Y7JTDzAYTty5qo5J1XAAiJv/OQ4f/46VBNOmLy+YF3A5ZAxI9qSgqw8AfaK6gohKrKOtSvSK//0xxY8f4sV+CHFG6iwX0op1Me+rTiJWbXLadRAhRDA7KPrH1IAszmATqotzPdapXoeF0w/PrqA513eJwZCs5fBHiaTXwno2p4LWE9MPzMR6uRdb2P1JpUCw36MJ4XhTxtv3JawVHTGFGT5RtB3DDuRAkSJI1gxKQwvGF17rWF0bGbkc43Ey59ENZHqoPmR94kKEuov3cOAPr6f5+TQGRjGuyQVNVCLYgezz9dbTsbVX6zIWKdOGi9IgQ0KnbmVyt+rnuTO0vMkcFvlpXNSHEEFNedRPfdqJ/d/y7wpAr+7D435jBSoNDg8Nl9u4Y5G9ST+raKjDK5Vr9xmIMVLqDGn8zxtv8bE/63cYaRRuBoDoYHUHfyYB6ju/nus/pDCLehojAdS4Cz9UziQgK6Jx7qqPpACq+JuPrtGvU6Z4NrRO1P+IhWDfTlk9ox0k8dd4ao+rG5BChy12s+tq9viuiEVaVj1dCTF61Nr7xA7m6FgfzHaHPROiwBwQZucwdZUJPD1J5YJGgJY6AOQ2dsD2DiPa6knVUJn3DZPcjJiuFKJjyDIltgL3kGJUo3gBt/l9QWpAGwQNukUGOrq5wdO3JOCzzfZdcAQcI0Eos9kkdFCV8ZOdQsMjd2kPhdC8C2xvSwBilZD02uO+pQI/OvzpDRiKnwLEDjfmyW+v0oK4RjF4HVhF+dJabhk5D1QDg52/kpSJEQh2Mn8RKc0FB25GYJX27B5tklLyyQgmiJgO8HA6rSd4vCteFGnRx18DP46IwADbnfE2J9II34+3l9VIdLpusI3pDGGYcPlFOCrSaBBpsYg2Nnlp1F6GQAv4PaL9WzsoskJaYRfY6pxAg9dUjqSQuxcRAWuyE3Q0anjTgIpAngx6AXZ6qPu2oj5Z4x6unEazJXJrkH1MSmWZLXnu/N+XFg6usTCSNnMI75XZ5nEPF5kFn0oJUZVW15cMqU8BNTpt8C05YOp6+K6y0IhbUljU2/RZSaEjHaJB49ricggMvbU5SRiI9F3TZoiy6PJ0knWl10iWd6w8CtRmJQNIb5m8hcwQjyzu+YLwyvro+ijBFnSbq8qrTy6X7tGy4Ly0kzCeOMJZEaij6dymVvy9gho+Rq+++tYZiNIhe6ytE9fg2CQVmHcHEWN5P+Ro9/hDoC8UmDHKJCa9MUu6tcgFRS+REhRJV33MXwDD2mwi2sLKXp+sXs+hTnCU0qKdQZSFfJoof6KHhR9OW7Wk1JtPlN1V7QWVHUCPxeVPEV9Cp+KDI5hKoIrxxKk5FMs2ki+qVaZSgaXoeapbAg7aHw8hVCVZorCKhJNeIrf/aDYuUasbLQVLXo9KQsQEetHUbsITFXqi2/RuDejLifYKLK+gOCmrBEMrU+CFKB3wEaXLwCp6xZDf4ggxRWHgwTwV6D8DPKtFymd/dRfxtijNpB6/N+QIuGbFGT9/QnwLXiTAjTUUvIFKCuZr/MSIylLtWlEk+sXoDzF4kQzUsoShP8V66ka+3QK4EVKHgx+i5RqF2+qf039U4q9rz8h9U4IJlKK1v8/IeVMfv/dkyfvPP0LUp8k800q/5+Tou8A6dPnKV2Af0BqdgDnQ0qaQPwBqVlL86x3WNb4/fuk5v0FM1Ky5oFfJ4Wb2W7UvPVbYhZ+nZQzTwMWnfvd4QT+tpv5tOhuSB2HMPhmfgOHr2+iQ1KSky7igo0f41Bn/WVpYHVuRqPV/ovwVns+K1Jc8+DnV2CvW0PWx54C0KGCb+YvvWast6E2p9ZCSDvVDQwAKW9Ta9qe71N3w43nnmBQpyT+toC5cxJS3bvUgCtWXLmduFbyA1JGqpIVBpvSSDU+sle93CPFVQft4RVHVTmK7hbkdo/88kIuK9btPbUHRUHH22+x3T8cbSlkRYFKZck3amm9/56DY+QKWYG6rQ1xCEP6lqNi6tGBey6txKwc6BHk7Z1ecWRZju9LaGVXXcBK/tLGjc3xVQgpo2ISjwNpxpGZYexJXiC7gyNvJCOlyorxQ3IqliHZ49LbSoL6OJLBKla5hJNnSnVSfoUKz45v5MFUugSvx0fksZ/InafqBpxccimPWx6ONyqOr/CgN9XMK+8Kkl1fRO1sd8jW9VgbMeAKI8CtSvdjYWHK2vV9ZTzO2PHUeRfArjTk/inr6kjm0Cuz/D2NQZ6V3vH+C3UyiIOC3dQVpfjYOtiUUnSry7I2EaP02Lgx1sGaMqF3mj0KR2aeMbYZk+RQgpJTQlsy4be/xR3+wR4AtQt4l6jOPXn3hECuftoCEz/VaVzVu1GQV7Wte30fdtnzqrfhq3v3Ir+3yAHsek2MPMdO7rp70Gduqby3NSLqGxgxJfjZninXnLvPk8dVhx3fZfvrDWPm+Q4rqm3j1C+SGtAbyq43TZQQ16NsAPVc4gqj1WWnLvL8OSkBHsT3vMratOuKIu3SNqvCexz8sJHhPz4ImHZFmdjpAAAAAElFTkSuQmCC;" vertex="1" parent="1">
          <mxGeometry x="460" y="183.82" width="38" height="38" as="geometry" />
        </mxCell>
        <mxCell id="FyhJWKibUBtJ3xeml6g5-22" style="edgeStyle=orthogonalEdgeStyle;rounded=0;orthogonalLoop=1;jettySize=auto;html=1;entryX=1;entryY=0.5;entryDx=0;entryDy=0;" edge="1" parent="1" source="FyhJWKibUBtJ3xeml6g5-21" target="FyhJWKibUBtJ3xeml6g5-20">
          <mxGeometry relative="1" as="geometry" />
        </mxCell>
        <mxCell id="FyhJWKibUBtJ3xeml6g5-21" value="" style="shape=image;verticalLabelPosition=bottom;labelBackgroundColor=default;verticalAlign=top;aspect=fixed;imageAspect=0;image=data:image/jpeg,/9j/4AAQSkZJRgABAQAAAQABAAD/2wCEAAkGBxITEhUSExMVFhUSFRgXFhgWFxUVFxYVFRUWGBcYGRgYHSggGBolHRUWIjEhKiorLi4uFx8zODMsNygtLisBCgoKDg0OGxAQGy0mICYtLTYtNTItLS4tMjIuLS0tLTUxLS0tLS0tLy8tLTUvLS0vLS0vLS0tLS8tLS0tLS0tLf/AABEIAOkA2AMBEQACEQEDEQH/xAAbAAEAAgMBAQAAAAAAAAAAAAAABQYDBAcBAv/EAEMQAAECAwQHBQUFBgUFAAAAAAEAAgMEEQUSITEGQVFhcYGhIjKRscETUmJy0UKCksLwBxQzorLxI0NTg+EWNGNz4v/EABsBAQADAQEBAQAAAAAAAAAAAAAEBQYDAgEH/8QAOBEAAQMCAwQKAQMDBAMAAAAAAAECAwQRBSExEkFR0RMyYXGBkaGxwfDhFCJCBlLxIzNTchU0kv/aAAwDAQACEQMRAD8A7igCAIAgCAIAgCAIAgCAIAgIy3rbhyrLz8XO7jBm4+g2n+y4T1DYUuuu5CXR0clS6zdN68PvA5tP29MRYntDEc0tPZDCWhnAepzVK+ple7auaqKggjZsI1F431UtujOmAiEQpijXnBr8muOw+67od2RsKau2v2ya8Slr8JWNFkhzTem9Oaepb1YlIEAQBAEAQBAEAQBAEAQBAEAQBAEAQBAEAQBAEBp2vaLJeE6K/JuQ1uccmjiuU0qRMVynemp3TyJG3/ByW0p58eI6LENXO8ANTRsAWekkdI5XO1NpBAyFiMZohrLwdggOg6D6QGIP3eKavaOw45vaNR2uHUcCVcUNTtJ0btdxmcWoEjXpo0yXXsXkvuW5WJSBAEAQBAEAQBAEAQBAEAQBAEAQBAEAQBAEAQHNtPLU9rH9kD2IOHF57x5ZcnbVSV823Jsponv9+TV4RTdHD0i6u9t3PyKyoJbBAEBklph0N7YjDRzCHA7x6L01ytVHJqh4kY2Rqsdop2OzptsWEyK3J7QeFcxxBw5LSRvR7Ecm8w00SxSKxdymwvZyCAIAgCAIAgCAIAgCAIAgCAIAgCAIAgMM3Nw4bb0R7WN2uIHnmvL3tYl3LY6RxPkXZYiqvYVm0NOoLcITHRDtPYb1FeigSYixOol/T75FtDgkrs5FRvqvL1OfRYhc4uObiSeJNSqhVut1NM1qNRETcfK+H0IAgCA3JO1o8IUhxXtAyANWiuPdOHRdWTSMya5UOEtLDKt3tRV9fPUmpLTiZb3wyIN4uu8W4dFJZiErdbL6ffIr5cGp3dW7fVPXmWGztN5d9BEDoR39pv4hj4gKZHiEbutl7FZNg07M2Wcnkvl+TZtbS2Xgjsu9q4ioDCCMcquyHU7l7lrYmaLdezmcqfC55VzTZTt5FTndNZp/cuwx8IDjzLq18Aq99fK7TL728i6iwenZ1ru9PbmRr7fmjnHicnU8lxWpmX+SkpKGmT+CeRe9CbXdHglrzWJCNHE5lpxaT1H3Va0U6yMs7VPqGdxWlSCW7Us1fq/e0sSmlWEAQBAEAQGvOT0KEKxIjWDVeIFeG1eHyMYl3LY6xQySrZjVXuIKa03lW92/E+VtB/OQoj8QiTS6/e2xYx4NUO61k715XI6J+0AfZlyeLwPJpXFcSTc31JLcCXe/0/J8t/aBtl/CJ/8AC+JiXFvr+D6uBcJPT8m7Lady5weyIzfQOHQ16Lq3EY11RUOD8EnTqqi+n49SblrblojS5sZhDRU1cGkDaQaEKU2oicl0chXyUc7F2XMXyKvbmnGbJYf7jh/S0+Z8FAnxDdH58i3pMG/lP5J8ry8ymzU0+I6/Ee57trjXkNg3BVrnOet3LdS+jjZG3ZYlkMS8nsIAgCAIAgCAIAgCAIAgLN+z6YuzJZqiQyObaOHS94qdh7rS24oVGMx7VPtcF98jpKuzKhAEAQBAYJ55bDe4ZhjiOIaV5etmqp0iRFkai8UOMxIrnG85xc45lxJJ4krMKqrmupvEajUs1LIfKH0IAgCAIAgCAIAgCAIAgCAIAgCAIAgCAnNCWkzsKmq+Tw9m4eZClUSL07fH2UrsVVEpH+Huh1NX5jwgCAIAgMM6ysN42scPEFeXpdqodIls9q9qHFW5LLpob1T1fQEAQBAEAQBAEBnk5KJFddhsc8/CMuJyHNe2Mc9bNS5zlmjiTaeqIhZ5DQOK7GLEazc0X3c8gOqnR4c9estvX76lRNjcTco2qvonP2JyV0JlW94PiH4nEdGUUpuHwprdfHlYrpMZqXdWydyc7klC0elG5S8Pm0O6uqu6UsKfxTyIrq+pdq9fO3sbDbLgDKDCHBjPovaRRpo1PI5rUzLq9fNT4iWNLOzgQj/ts+i+LBEurU8kPrauduj3eamjMaJSb/8AKuna1zm9K06Li6ihdu8iSzFapv8AK/eif5ISe0B1wY3KIPzNy8FFfhv9jvP8cifFjn/Kzy5LzKvadiTED+JDIb7w7TPxDLnRQZYJI+snIt4KyGfqOz4b/LkR64koIDesW03S8URWgGmBB1tOYrqOGa6wyrE/aQj1VM2ojWN31Tq9mz7I8MRIZq13iDrBGohaCORsjdppjJ4HwvVj0zNpdDiEAQBAEBxadgeziPh+49zfwuI9FmHt2XK3gpvYn7bGv4oi+ZhXk6BAEAQBAEAaKmgxJwAGJJOQCHxVtmpc7A0KLqRJmoGYhg0J+YjLgMd4yVnT0Cr+6Ty5lFWYwjf2QefLmXeWlmQ2hjGhrRkGgAK0axrUs1LIZ+SR0jtp63Uyr0eAgCAIAgCAIDwhAVm2tDYMWroX+E/cOweLdXEeBUGagY/NmS+hbUuLyxftk/cnr58yg2lZ0WA+5FbdOrWHDa06wqiSJ0btlyGlgqI527Ua3+7zVXM7EzovbhlouNTCfg8bNjwNo6jkpNLULC+66LrzIGIUSVMeXWTTl4nVGPBAIIIIqCMiDkVfot80McqKi2U+l9PgQBAEBzHTqT9nNOdqigPHGl1w8RX7yoq6PZmVeJrsIm26ZE3ty+U+9hXlDLMIAgCAID1jSSAASSaADEknAADah8VURLqdJ0U0ZbAAixADGI4iGDqHxbTyG+7pKRI02ndb2MriOIrOuwzq+/44J9SyqcVIQBAEAQBAEAQBAEAQGraMhDjsMOI0OafEHaDqK8SRtkbsuQ7QTvhftsWynMtItH4kq7W6G49l/wCV2x3n4gUVRTOhXinE1tFXMqW8HJqnLs9iHUYnF8/Z/bF5plnnFgrD3t1t5E4bjuVth8906Jd2hm8ZpNl3Tt369/Hx9+8uasyiCAIAgK3p1ZntZf2gHag1dxYe+PAA/dUKvi249pNU+r97C1wip6KbYXR2Xju5eJzWiozV3FEFxRBcUQXFEFy9aB2FQCaiDE/wgdQyL+J1buKtaCny6V3hzM7i9bdegZ48ufb3F0VoUIQBAEAQBAEAQBAEAQBAEBim5ZkRjob2hzXChB/WB3ry9iPTZdoe45HRuR7FsqHK9IrEdKxLpqWOqWO2jYfiH/KoKiBYXWXTcbGirG1Md96ap93GjITToURkVveY4Eb9o4EVHNcGSKxyOTcd5Y0lYsbtFOxSsdsRjYjTVr2hw4EVC0zHI5qOTRTDyMWNysdqhlXo8BAEB4QgOVaUWR+7xy1vceLzNoaSeyeBBHCm9Z2rh6GSyaLobLD6r9RDtLqmSkRRRrk0US4FEuCS0fsszEdsP7PefuYM/HAc12poumkRu7f3EWtqf08Kv37u/wC5nWmNAAAFABQAZABaVEsYtVVVup6h8CAIAgMM3NMhtL4jg1o1k05bzuXl72sS7lsh7jifI7ZYl1KpaWnTBUQIZd8T+y3iG5nnRVsmJtTKNL9+X59i5gwRy5yut2Jmvnp7kDM6XTj8ogZuY1v5qnqobq+d2+3cnO5ZMwqlb/G/evKxqG35v/XieK5/qpv7lO36Gm/sQywtJ5xv+eTxaw+bV9SsnT+XtyPDsNpV/h6rzJWT06jN/iQ2PHw1YfUHwCksxOROsiL6cyJLgsS9Ryp68iy2XpTLRqC9ccfsv7NTuOR8aqfDWxSZXsvb9sVNRhk8OdrpxT7cm1LK8IAgNG2bMZMQnQna8WnW1wyI/WRK4zwtlYrVJFLUup5Ee3x7UOSzUs6G90N4o5hoRvHprWbe1WOVrtUNnHI2RqPbop0D9n87fgOhnOC7D5X4jre8FdYdJtRq3h8mbxmHZmR6fyT1T6haFYFQEAQBAcs0qmvazUQ6mm4ODMD/ADXjzWcrJNuZy8MvL8mvw+Poqdqcc/P8ETdUYm3F1BcXUFzoGgNn3ILopGMU4fI2oHib3RXeGxbMav4+yGaxifblSNNG+6lpViVAQBAEBEaQW6yWb70Rw7LPV2xvmotTVNhTiu5CbR0T6h3Bqar93nOLSn4sd9+K4k6hk1o2NGpUMsz5V2nqamCBkDdmNLfd5qXVzO1xdQXF1BcXUFxdQXF1fBdSdsPSWNAo0kxIfuuOIHwu1cMuCmU9a+LJc0+6FdVYdFPmmTuPP7c6FZtoQ47A+G6o1jW07CNRV5FMyVu0xTNTwPhdsvQ2l1OIQFN0/sqoEy0YijYnA913I4cxsVViUOSSp4/Be4PU2VYV70+eZGaBTF2ZLNURhH3m0cOl5cMOfaZU4oSsXZtQbXBff6h0VXhmAgCAwzkcMhvecmNc78IJ9F4e5GNVy7kPcbNt6NTeqIcfLicTmcTxOayd1XNTcWRMkCXAS4PWMJIaM3EAcTgES65IfFVES6nX5OXEOGyGMmNDRyFFrI2IxqNTcYiWRZHq9d6mZezwEAQGhbVptl4RiOxOTR7zjkPXgCuFROkMauXw7yRS07p5EYnj2Ictm5l8R7ojzVzjUn0GwDYsy+Rz3K52qmwjjbG1GNTJDEvNz2Z5OSiRTdhsc866DAcTkOa9xxvkWzEuc5Zo4ku9bE7L6FTDsXOhs3VLj0FOqnMwyZdVRPX75lc/GIE6qKv37uM0TQaN9mLDPEOb5Ar0uFybnJ98zwmNRb2r6fgjJ3Rqah4mHeG1nb6DHoo0lFPHmrb92f59CXFiNPJkjrd+X49SIUW5NCXAS4NyyrTiS8QPYfmacnDYfrqXWGd8Ltpv+ThUU7J2bD/DsOn2VaLI8MRGZHAjW1wzB3rSwTNmYj2mSqIHwPVjjbXU4GGbl2xGOhuye0tPMLw9iParV0U9xyLG9Ht1Q5vYEN0KeYx3eZELDxoWnkqCkRWVKNXVFt8GprXJJSOcmioi/J05aIyYQBAQ+lsW7KRd4DfxOAPQlQ692zTu8vNbE7DW7VS3z8kOZUWbua24olxcUS4uSmjEvfmoQ1B178ALh1AUmjbtztTt9syHXybFM9ey3nkdRWnMgEAQBAc600tD2scsB7MHsje77R9ORWexGfbl2U0b77+RqMLg6OHaXV3tu5lfooFyzuT+jWjhmDffVsIHVm8jMDYNp5DdOo6NZ/3O6vuVtfiCQJstzd7feH1egyssyG0MY0NaMgBT+53q/YxrE2WpZDMySOkdtPW6mVezwEAQEVbFgQZgVc26/U9uDufvDj0UWopI5tUz4kymrpYF/at04Lp+Dn1r2REl33XjA91wycN2w7lQTwPgdZ3gvE09NVMqG7TfFOBoUXC5IuKJcXJfRq1jLxak/wCG+geN2p3EeVVKpKnoZLrouvPwIVdSpUR2TrJpy8TpoNcVpjInqAptryly0oLxlFLT95vZPS74qnmj2K1ruPumXIvKeXboHt4fOfMuSuCjCAh7dt+HLi73ohyaNW9x1DqoVXWsgy1dw5k6koX1GejePIodpWnFjmsR1RqaMGjgPXNZ+apkmW715Gjgpo4EsxPHeaV1cSQLqAXUBYdBodZkn3Ybj1aPVWOFpefwX3Qq8Wdant2p8nQFojNBAEBimowYxzzkxpceDQT6LxI9GNVy7kPcbFe9GpvU5K8kkk4kkk7ycSserlVbqbVEslkNqypAxorIQwvHE7GjEnw60XaniWaRGJv9jjUTpDGr13e51GBBaxoY0Ua0UAGoBatrUa1Gt0Qx73q9yudqpkXo8hAEAQBAatpyDI8Mw3jA5HW06nDeuU0LZmKxx2gndC9HtOYT8k6FEdDfm003EaiNxCyssbonqx2qGuhlbKxHt0U17q5nUXUB0DQu0PaQfZk9qDRv3D3fIj7q0OGT9JFsLq323cvAzOKQdHLtpo7338/EsKsisMcSC1xBLQS01aSAS07QdS8q1FVFVND0j3Iioi66mRejyQWk1uiA24zGK4Ya7g9479gVdX1qQJst6y+nbyLGgounXad1U9fu8oMR5cS4kkk1JOJJOsrNq5VW66mlRERLJofK+XPtwlxcJcXCXFyxaC/9w7/1H+titMJX/WXu+UKrF/8AZTv+FL2tEZ0IAgI3SN1JaN8hHjh6qLXLanf3KSqFL1DO85osnc1ty2aBS4vRYmwBo54u8mq5wdl1c/uT5X4KXGJMms715fJcVelEEAQBAEAQBAVXTqQBa2MBi03XfKcvA/1KnxeG7UlTdkvd/n3LnCJ7OWJd+afe72KYqG5fXCXFya0Qmrky0aogLTxzHUU5qfhsuxUInHL5K/E49uBV4ZnQ1pzMBAadqz7YEJ0Q40waPecch+t64VM6QRq9fqnemgWaRGJ9Q5rMRnPc57zVzjUn9alkHvc9yudqpq42tY1Gt0Qx0Xk9iiAUQCiAUQE1ofEuzTR77XN6Xvyqwwt+zUp2oqfPwQMSbtU69ipy+ToC1BmQgCA0Ldh3peKP/G4+Ar6KNWNV1O9E4KSKR2zOxe1DmlFkDWly0DI9nEGu+DyLR9Cr/Bl/03p2/BQ4ui7bV7PktCuSoCAIAgCAIAgNC3YN+Xit+AkcWi8OoCjVjNuB6di+mZIpH7E7F7ffI5nRZA1p7RAZZSJciMf7j2u8CCvcT9h7XcFT3PEjdtit4op1VbUxoQFH0wnr8X2Y7sLPe8jHwFB4rNYtUbcvRpo33+/JocLh2I9tdV9iAoqq5Yooupc+3F1Li4upcXF1Li4upcXM8jG9nEZE9xwJ4A49KrpDL0cjX8F/z6HOZnSRuZxQ6eDXFbZFuZBcj1AEB4RXBBocytGTMKK+GfsnDe3Np8KLF1ESwyOjXd7bvQ10EySxo/j9Uk9EZ0Q4104Nii794d3zI5hTMKqEjm2V0dl47uRDxKHpItpNW+28va1BnQgCAIAgCAIDXtE0hRDsY7+krlOtonL2L7HWBLyN709zmAasUimuuLqXFzxzcF8cuQRTqzMhwW6TQxq6n0vp8KVpNYzobnRm1LHkl21pO3cTrWYxSidG5ZW5tXXs/Bf4fVte1I1yVPUgFVXLJEC+XAS4CXAS4CXAS4L5otO+0gBp70PsngO6fDDkVq8LqOlgRF1bly9DOYhD0cyqmi58yYVkQQgCAgdKLIMVvtGCr2DL3m7OI1c1VYnRLM3pGdZPVPuhY4fVJE7YdovopSVl7mgLpo/b4iAQ4ppEGAJyf9Hbta02H4k2REjlWzvf8/UKGtoVYu3Gn7fb8FgVuVgQBAEAQBARmkca7LRPiF38Rp5EqDiUmxTP7Ut55EuhZtTt8/I58shc0wS4BCLofTpsnNMiMD2GrT03HYVuIZWSsR7FuhkZYnRu2XpmZ11OZ44AihxBzXxURUsp9RbZoVS2tGiKvgio1s1j5do3LPVuEq274NOHLl5cC5pcRRU2ZfPmVst6KivuLW55RfLi4olxcUS4uKJcXFEuLkjYc/7CKHHuuwfw28vqptDV/p5Ucui6/ezmRauDpo7b9xf2kEVGIOS2SKipdDNKlslPV9AQBAQNt6OiKS+HRrzmPsu+h3/3VRXYWky7ceTvReSllSV6xpsPzT1QqU1KPhm69pad+R4HI8lm5opIl2ZG2++Sl1HMyRLsW5tydtR4eAfUDU7tD6jxUiHEaiLJHXTtz/PqcJaOGTNUz7Mjf/6rjU7kOv3vKqmf+cmt1U9fvqRv/GRX1X05GuZ6bmTdaTTWGdlo4n6lcf1NZWLstVfDJPFfydehpqZNpU881LlIwnMhta915zWgE7T6rUQMcyNrXrdUTNSimc1z1c1LIZ11OYQFV0zm6lkIau27yb69FnsbqM2wp3r7J8lxhcVryL3J8lYoqC5b3FEuLiiXFyTsK0jAiY9x2Dx+biPJT6CtWmkz6q68/D2ItZTpMztTQvoK2KLczR6gCAj7RsiFGxcKO95uB57eahVVBDUZuSy8U1/PiSYKuSHJFy4FcnNGozcWUeN2DvA/VUM+DTszZ+5PJfL8lrFiMTutl7ETGgOYaOa5p3gjzVXIx8a2eip3pYnNe12bVufFFzuehRfbgUS4FEuCx6M2vSkGIcPsE6vhPp4bFfYTiCNtBIv/AFX45eXAqa+kv/qs8efMtK0hThAEAQHzEYHChAI2EVC8uajks5Ln1HK1boaEWw5d2cID5SW/0kKG/DKV2rE8Lp7EltbO3+Xz7nkOwZYY+zB4lzuhNF8ZhdK1bozzVV91Prq6df5exIQ4YaKNAAGoCg8AprWtalmpZCKrlct1Ppej4EBhnJlsNhe7Jo8TqA3lcZ5mwxrI7RDpFG6R6NbvOfTUZ0R7nuzca/QchQclh5pnSyLI7VTTxsSNqNTcYqLnc9iiXAolweXUPpdtF5q/BDTnDN3lSremHJa7CJ+kp0aurcuXpl4GexCLYlum/PmS6tCCEAQBAeEIqXBVNJ7Nuu9q0dl2DgNTtvA+fFZbGaPo39MxMl17F/Pv3l1QVO03o3apoQV1UdyxuLqXFxdS4uLqC5Y7Ft6lIcY4ZB+zc76+O1aDDsX2bRzr3Lz5+fEq6qhv++Py5ciyg1xGtaRFRUuhUKlj1fQEAQBAEAQBAfEWIGgucQAMyV5e9rGq5y2RD01quWyalMtu0zGdQYMb3RtPvFY3EcQWqfZOqmnPkX1JTJC266qRl1V1yXcXUuLi6lxcXUuLiiXPqFq0Vk4jLznCjXgUBzNK401DFafBKeWNHPelkW1uORTYjMx9mtW6oT6visCAIAgCAxx4LXtLXCocKFc5Y2ysVj0uinpj1Y5HN1QpFoyDoTy05ZtO0fVYatpH0sqsdpuXin3U0UE6Ss2k8TVuqJc7XF1Li4upcXF1Li5v2dakSDgDVvunLlsU+jxKamyat28F+OH3IjT0sc2a68SySVtwn4E3HbHYeByK0tNi9PNkq7K8F56FTLRSs0S6dhJBWhECAIAgCA0J+1oULAmrvdbieexV9XiUFPk5brwTX8eJJhpZJdEsnEq9pWk+Me1g0ZNGQ47SsrWYhLVL+7JNybvypcwU7IUy14mjdUG5IuLqXFxdS4ubtnWW+NW7QBuZNQK7MBmptHQS1V9i1k4keepZDba3kjC0Yd9qI0cAT50VnHgEi9d6J3JfkRXYm3+LSWkbGhQ8QLzhrdieQyCt6XC6enXaRLrxX7ZCDNWSyZKtk7CRViRQgCAIAgCAIDRtmAx0J1/7IJB1gjKigYnFFJTOWTcl043JFK9zZU2d5TLqwdy/uLqXFxdS4uLqXFxdS4uLqXFzPLzURnce4bq4eBwUiGrmh/23qnt5aHN8TH9ZLm/Dt+MM7ruI+hCsGY7VNTOy96clQjOoIl0uhmGkb9bG+JUhP6hl3sTzU5rhzOKny/SKLqaweJ9V4f8A1BOvVa1PNflD0mHx71U0Zi0oz+8802Dsjpmq+bEqqbJz1t2ZexIZTRM0b8mndUK53uLqXFxdS4uLqXFzNKSjojgxuZ8ANZO5d6anfUSJGzVfROJ4llbG3acXSSlWw2Bjch1Oslb2mp2U8aRs0Qz8srpHK5TOu5zCAIAgCAIAgCAICM0ifSDT3nAevoqbHZNiktxVE+fgmULby34IVa6sXcuri6lxcXUuLi6lxcXUuLi6lxcXUuLi6lxcXUuLi6lxcXUuLi6lxcXUuLi6lxcyy0o6I660VPQDadgXenp5Kh+xGl19E7zxJK2Nu04tlmyDYTaDEnvHb/wtxQ0LKSPZbmq6rx/HBCjnndK666bjbU44BAEAQBAEAQBAEAQERpL/AA2/P+UrP/1H/wCuz/t8KT6Drr3FdosdctRRLgUS4FEuBRLgUS4FEuBRLgUS4FEuBRLgUS4FEuBdX3XIFzlZVsNt1opt2neSv0ilpYqZmxGlvde8z8krpFu4zKQcwgCAIAgCAIAgCAIAgI3SBlYVfdcD5j1VH/UEe1SbXBUX4+SZROtJ3oVtYe5bXCXFwlxcJcXN+Tsl7xXujVXXy2b1c0eC1FQ3aX9qbr7/AA4dpGlq2MW2p8xrJit+zX5TXpmvE2C1kf8AG/ct/TJfQ+tq4nb7Go+GW5tI4gjzVbJFJH12qneiodkejtFPlc7nq4S4uEuLhLi4S4uEuLmxIQr0Rg+IE8BifJTcOi6aqjZ2+iZr7HKZ+zGqluX6OUQQBAEAQBAEAQBAEAQBAYZuDfY5u0YcdXVRqyDp4HxcU9d3qdIn7D0cVX2LvdPgV+cdBN/Yvkpc7acTIySiHJjvCnmu8eHVcnVjd5W97HlZ2JqqG5AsR57xDep6YdVaU/8ATtQ/ORUb6ry9Tg+tYmmZJytmQ2Y0qdpx8BqWhpMHpqb9yJd3Fc/LchDkqXvy0Q3VaEcIAgMTpdhzY08QCuD6aF/WYi96Ie0kemiqfP7nD/02fhb9Fz/QUv8AxN/+U5H3ppP7l8yDtSziw3mjsH+XdwWPxfCnUrlkjT9i+nZ3cF8O+xp6jbTZXUj6KkJVxRBcUQXJqwJbOIeA9T+t61n9OUlkdUO35J88vMr62XRiEytUQAgCAIAgCAIAgCAIAgCAIAgCAIAgCAIAgCAIDwiq+KiKllF7EVN2ODiw03HLkdSzNd/TrXrt0627F08F3fdCbFWKmTyLiyr295pHKo8Qs1NQVEK2exU9vNMia2VrtFPuUky91KEDWdgXWhw6WpmRllRN68E58DzJMjG3uWWGwNAAwAwC/RIo2xsRjEsiaFQ5yuW6n0vZ8CAIAgCAIAgCAIAgCAIAgCAIAgCAIAgCAIAgCAIAvi6A+WLnFvPqn0up8CAIAgCAIAgP/9k=;" vertex="1" parent="1">
          <mxGeometry x="540" y="183.82" width="36.35" height="39.21" as="geometry" />
        </mxCell>
      </root>
    </mxGraphModel>
  </diagram>
</mxfile>
